<svg xmlns="http://www.w3.org/2000/svg" version="1.0" width="500.000000pt" height="500.000000pt" viewBox="0 0 500.000000 500.000000" preserveAspectRatio="xMidYMid meet">

<g transform="translate(0.000000,500.000000) scale(0.100000,-0.100000)" fill="#000000" stroke="none" style="fill: #111827;">
<circle xmlns="http://www.w3.org/2000/svg" cx="2500" cy="2500" r="2500" fill="white">
</circle>
<path d="M1865 3713 c-37 -11 -115 -17 -292 -20 l-243 -5 0 -109 0 -109 100 0 100 0 0 -930 0 -930 -100 0 -100 0 0 -110 0 -110 380 0 380 0 0 110 0 110 -81 0 -81 0 5 303 c5 315 17 425 56 540 61 175 159 277 269 277 29 0 91 -26 115 -48 11 -9 29 -35 41 -57 21 -39 21 -51 24 -527 l3 -488 -81 0 -80 0 0 -110 0 -110 380 0 380 0 0 110 0 110 -99 0 -99 0 -4 483 c-5 522 -5 529 -64 656 -75 165 -233 262 -427 262 -149 -1 -276 -46 -365 -132 -23 -21 -44 -39 -47 -39 -3 0 -5 200 -5 445 0 245 -3 445 -7 444 -5 0 -30 -8 -58 -16z"/>
<path d="M765 3666 c-64 -20 -99 -42 -139 -87 -99 -109 -106 -266 -18 -385 75 -99 215 -141 338 -100 207 69 268 348 107 497 -51 47 -79 63 -135 77 -59 15 -102 14 -153 -2z" style="&#10;    fill: #4f46e5;&#10;"/>
<path d="M1015 2998 c-54 -13 -121 -17 -292 -17 l-223 -1 0 -110 0 -109 98 -3 97 -3 3 -572 2 -573 -100 0 -100 0 0 -110 0 -110 400 0 400 0 0 110 0 109 -102 3 -103 3 -5 700 -5 700 -70 -17z"/>
<path d="M3700 3014 c-121 -21 -154 -30 -217 -59 -165 -76 -264 -223 -265 -395 -1 -124 32 -199 103 -235 68 -36 210 -9 278 53 l42 37 -16 45 c-25 68 -25 196 0 239 32 54 67 75 125 74 68 -1 109 -27 140 -88 23 -46 25 -64 28 -215 l4 -165 -133 0 c-251 -1 -411 -58 -547 -196 -31 -31 -68 -84 -89 -126 -85 -171 -42 -401 97 -526 174 -156 468 -136 652 44 33 33 62 58 63 57 1 -2 13 -24 28 -49 32 -56 78 -98 143 -130 40 -20 64 -24 134 -24 77 0 93 3 153 33 151 75 208 227 161 431 l-15 69 -42 -5 c-23 -3 -71 -11 -107 -17 -55 -10 -65 -15 -63 -31 13 -105 14 -174 3 -194 -30 -58 -35 -7 -41 467 -5 453 -6 469 -28 537 -35 105 -67 163 -127 225 -62 65 -125 103 -208 124 -60 16 -212 28 -256 20z m202 -969 c-6 -59 -44 -180 -73 -236 -36 -67 -101 -136 -146 -155 -18 -8 -51 -14 -74 -14 -79 0 -129 87 -109 190 27 140 125 220 295 241 100 11 110 9 107 -26z"/>
</g>
</svg>